<?xml version="1.0" encoding="utf-8"?>
<!-- Generator: Adobe Illustrator 16.0.4, SVG Export Plug-In . SVG Version: 6.00 Build 0)  -->
<!DOCTYPE svg PUBLIC "-//W3C//DTD SVG 1.1//EN" "http://www.w3.org/Graphics/SVG/1.1/DTD/svg11.dtd">
<svg version="1.1" id="Layer_1" xmlns="http://www.w3.org/2000/svg" xmlns:xlink="http://www.w3.org/1999/xlink" x="0px" y="0px"
	 width="800px" height="100px" viewBox="0 0 800 100" enable-background="new 0 0 800 100" xml:space="preserve">
<g>
	<g>
		<path fill="#231F20" d="M80.803,79.023l-0.22-1.543l3.964-0.571V50.214l-3.964-0.573l0.22-1.542l6.079,0.132l17.488-0.132
			l0.44,7.928h-1.498l-2.467-5.726l-11.673-0.132v12.334l6.167-0.177l1.762-4.624h1.542l-0.44,5.505l0.44,5.947h-1.542l-1.762-4.624
			l-6.167-0.178v12.556l5.286,0.571l-0.221,1.543l-7.356-0.133L80.803,79.023z"/>
		<path fill="#231F20" d="M111.201,78.891l-5.066,0.133l-0.22-1.543l3.083-0.44V60.962l-3.083,0.264l-0.22-1.541l5.286-1.365
			l2.202-0.177V77.04l3.304,0.44l-0.22,1.543L111.201,78.891z M108.998,48.584l3.172-0.22l1.233,0.22l0.221,2.467l-0.485,2.114
			l-3.127,0.265l-1.189-0.265l-0.264-2.467L108.998,48.584z"/>
		<path fill="#231F20" d="M124.197,78.891l-5.066,0.133l-0.22-1.543l3.084-0.44V60.962l-3.084,0.264l-0.22-1.541l5.286-1.365
			l1.895-0.133l0.22,3.701l6.519-4.273c5.639,0,6.563,1.895,6.563,7.18V77.04l3.348,0.44l-0.22,1.543l-5.066-0.133l-4.229,0.133
			l-0.221-1.543l2.203-0.44V64.442c0-2.291-1.013-3.305-2.907-3.305c-1.542,0-3.083,0.97-4.581,1.983l-1.322,0.881V77.04l2.422,0.44
			l-0.22,1.543L124.197,78.891z"/>
		<path fill="#231F20" d="M153.273,57.614c5.55,0,6.96,1.409,6.96,7.004v8.634c0,1.896,0.308,2.599,0.749,3.305h2.203l0.176,1.542
			l-5.683,1.101l-1.366-3.392l-5.242,3.832c-3.789,0-6.476-2.115-6.476-5.639c0-1.586,0.573-2.73,1.542-4.052l9.911-3.306v-2.201
			c0-2.644-0.22-4.229-2.599-4.229c-1.189,0-2.643,0.396-3.612,0.792l-0.749,3.48h-3.788v-3.348L153.273,57.614z M156.048,68.406
			l-6.387,2.644c-0.661,0.661-0.881,1.541-0.881,2.466c0,2.246,1.277,3.041,2.555,3.041c1.234,0,2.291-0.749,2.864-1.146l1.85-1.278
			V68.406z"/>
		<path fill="#231F20" d="M170.411,78.891l-5.066,0.133l-0.22-1.543l3.083-0.44V60.962l-3.083,0.264l-0.22-1.541l5.286-1.365
			l1.894-0.133l0.22,3.701l6.52-4.273c5.638,0,6.563,1.895,6.563,7.18V77.04l3.348,0.44l-0.22,1.543l-5.066-0.133l-4.229,0.133
			l-0.22-1.543l2.203-0.44V64.442c0-2.291-1.013-3.305-2.907-3.305c-1.542,0-3.084,0.97-4.582,1.983l-1.322,0.881V77.04l2.423,0.44
			l-0.22,1.543L170.411,78.891z"/>
		<path fill="#231F20" d="M202.659,60.653c-0.705-0.529-1.365-0.705-2.555-0.705c-2.995,0-5.286,3.349-5.286,8.151
			c0,4.712,2.555,8.235,6.873,8.235c1.673,0,3.436-0.836,4.978-1.85l0.705,1.674c-2.026,1.454-4.272,2.556-7.181,3.48
			c-5.638,0-9.823-3.7-9.823-10.484c0-6.916,5.066-10.221,10.484-11.541c2.026,0,4.757,1.013,6.079,2.202v4.405h-3.259
			L202.659,60.653z"/>
		<path fill="#231F20" d="M215.304,78.891l-5.066,0.133l-0.22-1.543l3.083-0.44V60.962l-3.083,0.264l-0.22-1.541l5.286-1.365
			l2.202-0.177V77.04l3.304,0.44l-0.22,1.543L215.304,78.891z M213.101,48.584l3.172-0.22l1.233,0.22l0.22,2.467l-0.484,2.114
			l-3.127,0.265l-1.189-0.265l-0.265-2.467L213.101,48.584z"/>
		<path fill="#231F20" d="M231.471,57.614c5.551,0,6.96,1.409,6.96,7.004v8.634c0,1.896,0.308,2.599,0.749,3.305h2.203l0.176,1.542
			l-5.683,1.101l-1.365-3.392l-5.242,3.832c-3.789,0-6.476-2.115-6.476-5.639c0-1.586,0.572-2.73,1.542-4.052l9.911-3.306v-2.201
			c0-2.644-0.22-4.229-2.6-4.229c-1.189,0-2.643,0.396-3.612,0.792l-0.749,3.48h-3.789v-3.348L231.471,57.614z M234.247,68.406
			l-6.387,2.644c-0.661,0.661-0.881,1.541-0.881,2.466c0,2.246,1.277,3.041,2.555,3.041c1.234,0,2.291-0.749,2.864-1.146l1.85-1.278
			V68.406z"/>
		<path fill="#231F20" d="M248.609,78.891l-5.066,0.133l-0.22-1.543l3.083-0.44V50.522l-3.083,0.088l-0.22-1.542l5.286-1.366
			l2.202-0.176V77.04l3.304,0.44l-0.22,1.543L248.609,78.891z"/>
		<path fill="#231F20" d="M275.129,57.614c5.551,0,6.96,1.409,6.96,7.004v8.634c0,1.896,0.308,2.599,0.749,3.305h2.203l0.176,1.542
			l-5.683,1.101l-1.365-3.392l-5.242,3.832c-3.789,0-6.476-2.115-6.476-5.639c0-1.586,0.572-2.73,1.542-4.052l9.911-3.306v-2.201
			c0-2.644-0.22-4.229-2.599-4.229c-1.189,0-2.643,0.396-3.612,0.792l-0.749,3.48h-3.789v-3.348L275.129,57.614z M277.904,68.406
			l-6.387,2.644c-0.662,0.661-0.881,1.541-0.881,2.466c0,2.246,1.277,3.041,2.555,3.041c1.234,0,2.291-0.749,2.864-1.146l1.85-1.278
			V68.406z"/>
		<path fill="#231F20" d="M292.266,78.891l-5.065,0.133l-0.22-1.543l3.084-0.44V60.962l-3.084,0.264l-0.22-1.541l5.285-1.365
			l1.896-0.133l0.22,3.701l6.519-4.273c5.639,0,6.565,1.895,6.565,7.18V77.04l3.346,0.44l-0.22,1.543l-5.064-0.133l-4.229,0.133
			l-0.22-1.543l2.202-0.44V64.442c0-2.291-1.013-3.305-2.908-3.305c-1.541,0-3.082,0.97-4.581,1.983l-1.321,0.881V77.04l2.421,0.44
			l-0.22,1.543L292.266,78.891z"/>
		<path fill="#231F20" d="M330.726,73.252c0,1.763,0.309,2.556,0.749,3.217h2.468l0.174,1.63l-5.902,1.101l-1.367-3.392
			l-5.681,3.832c-5.596,0-9.164-4.185-9.164-10.264c0-7.137,4.363-10.881,10.794-11.762c0.88,0,2.73,0.705,3.745,1.189v-8.325
			l-3.085,0.088l-0.22-1.498l5.287-1.366l2.202-0.176V73.252z M325.219,74.31l1.324-1.058V61.578
			c-0.969-1.101-2.513-1.762-4.363-1.762c-3.522,0-5.77,3.216-5.77,8.414c0,4.89,1.939,7.885,4.581,7.885
			C322.179,76.115,323.678,75.542,325.219,74.31z"/>
		<path fill="#231F20" d="M355.487,68.671l-2.865,8.238l3.834,0.571l-0.22,1.543l-5.286-0.133l-4.715,0.133l-0.22-1.543l3.437-0.483
			l10.925-28.545l2.642-0.749l11.498,29.294l3.437,0.483l-0.22,1.543l-6.079-0.133l-5.815,0.133l-0.22-1.543l3.746-0.571
			l-2.997-8.238H355.487z M361.346,54.971l-0.309-2.378l-4.846,14.008h9.384L361.346,54.971z"/>
		<path fill="#231F20" d="M396.898,73.252c0,1.763,0.306,2.556,0.749,3.217h2.464l0.178,1.63l-5.904,1.101l-1.364-3.392
			l-5.684,3.832c-5.593,0-9.161-4.185-9.161-10.264c0-7.137,4.36-10.881,10.791-11.762c0.883,0,2.733,0.705,3.746,1.189v-8.325
			l-3.083,0.088l-0.22-1.498l5.285-1.366l2.204-0.176V73.252z M391.391,74.31l1.322-1.058V61.578
			c-0.97-1.101-2.511-1.762-4.361-1.762c-3.525,0-5.77,3.216-5.77,8.414c0,4.89,1.936,7.885,4.581,7.885
			C388.352,76.115,389.85,75.542,391.391,74.31z"/>
		<path fill="#231F20" d="M432.447,78.891l-4.184,0.133l-0.219-1.543l2.201-0.44V64.442c0-2.291-0.969-3.305-2.557-3.305
			c-1.32,0-2.951,0.881-4.492,1.983l-1.32,0.924V77.04l1.98,0.44l-0.219,1.543l-3.746-0.133l-3.963,0.133l-0.221-1.543l1.982-0.44
			V64.442c0-2.291-0.971-3.305-2.555-3.305c-1.324,0-2.953,0.881-4.494,1.983l-1.322,0.924V77.04l2.203,0.44l-0.221,1.543
			l-3.963-0.133l-5.066,0.133l-0.221-1.543l3.082-0.44V60.962l-3.082,0.264l-0.221-1.541l5.287-1.365l1.893-0.133l0.221,3.656
			l6.08-4.229c4.273,0,5.857,1.278,6.344,4.317l6.211-4.317c5.639,0,6.564,2.114,6.564,7.708V77.04l3.303,0.44l-0.221,1.543
			L432.447,78.891z"/>
		<path fill="#231F20" d="M445.316,78.891l-5.066,0.133l-0.221-1.543l3.084-0.44V60.962l-3.084,0.264l-0.221-1.541l5.287-1.365
			l2.201-0.177V77.04l3.305,0.44l-0.221,1.543L445.316,78.891z M443.113,48.584l3.172-0.22l1.232,0.22l0.221,2.467l-0.484,2.114
			l-3.127,0.265l-1.189-0.265l-0.266-2.467L443.113,48.584z"/>
		<path fill="#231F20" d="M458.312,78.891l-5.068,0.133l-0.219-1.543l3.082-0.44V60.962l-3.082,0.264l-0.221-1.541l5.287-1.365
			l1.893-0.133l0.221,3.701l6.52-4.273c5.639,0,6.564,1.895,6.564,7.18V77.04l3.348,0.44l-0.219,1.543l-5.068-0.133l-4.229,0.133
			L466.9,77.48l2.203-0.44V64.442c0-2.291-1.014-3.305-2.908-3.305c-1.541,0-3.082,0.97-4.58,1.983l-1.322,0.881V77.04l2.422,0.44
			l-0.221,1.543L458.312,78.891z"/>
		<path fill="#231F20" d="M484.217,78.891l-5.066,0.133l-0.221-1.543l3.082-0.44V60.962l-3.082,0.264l-0.221-1.541l5.287-1.365
			l2.201-0.177V77.04l3.303,0.44l-0.219,1.543L484.217,78.891z M482.012,48.584l3.174-0.22l1.232,0.22l0.221,2.467l-0.482,2.114
			l-3.129,0.265l-1.189-0.265l-0.266-2.467L482.012,48.584z"/>
		<path fill="#231F20" d="M503.6,60.742c-0.439-0.265-1.762-0.97-3.348-0.97c-1.719,0-3.348,0.926-3.348,2.6
			c0,1.409,1.102,2.29,3.084,3.303l3.393,1.718c2.949,1.499,4.139,3.173,4.139,5.684c0,3.964-3.213,5.462-8.281,6.563
			c-2.686,0-5.549-1.321-6.695-1.981l-0.838-4.979h2.82l1.498,3.655c0.926,0.616,2.203,1.103,3.613,1.103
			c2.334,0,3.523-1.498,3.523-3.348c0-1.719-0.924-2.468-3.217-3.657l-3.48-1.806c-1.893-0.97-3.699-2.644-3.699-5.109
			c0-3.084,2.863-4.803,7.973-5.903c2.381,0,4.934,1.058,6.211,1.981v4.406h-2.336L503.6,60.742z"/>
		<path fill="#231F20" d="M508.932,60.785v-0.749l1.541-1.541h2.863v-2.862l2.865-2.864h1.143v6.035h6.654v1.981h-6.607v12.907
			c0,1.277,0.482,2.643,2.332,2.643c1.279,0,2.248-0.439,3.48-1.056l0.748,1.498l-5.152,2.862c-4.934,0-5.596-1.762-5.596-5.728
			V60.785H508.932z"/>
		<path fill="#231F20" d="M532.766,64.002l5.021-6.168h3.523v4.405h-3.26c-1.059,0.222-2.996,1.674-4.186,3.128l-0.881,1.057v10.485
			l4.627,0.439l-0.221,1.675l-6.389-0.133l-4.934,0.133l-0.221-1.543l3.084-0.44V60.962l-3.084,0.264l-0.221-1.541l5.287-1.365
			l1.762-0.133L532.766,64.002z"/>
		<path fill="#231F20" d="M551.529,57.614c5.553,0,6.963,1.409,6.963,7.004v8.634c0,1.896,0.307,2.599,0.75,3.305h2.201l0.174,1.542
			l-5.682,1.101l-1.367-3.392l-5.24,3.832c-3.789,0-6.477-2.115-6.477-5.639c0-1.586,0.574-2.73,1.545-4.052l9.91-3.306v-2.201
			c0-2.644-0.221-4.229-2.6-4.229c-1.189,0-2.643,0.396-3.611,0.792l-0.75,3.48h-3.787v-3.348L551.529,57.614z M554.307,68.406
			l-6.389,2.644c-0.66,0.661-0.881,1.541-0.881,2.466c0,2.246,1.279,3.041,2.557,3.041c1.232,0,2.291-0.749,2.863-1.146l1.85-1.278
			V68.406z"/>
		<path fill="#231F20" d="M561.844,60.785v-0.749l1.541-1.541h2.861v-2.862l2.865-2.864h1.143v6.035h6.654v1.981h-6.607v12.907
			c0,1.277,0.482,2.643,2.332,2.643c1.279,0,2.248-0.439,3.48-1.056l0.75,1.498l-5.152,2.862c-4.936,0-5.596-1.762-5.596-5.728
			V60.785H561.844z"/>
		<path fill="#231F20" d="M584.045,78.891l-5.066,0.133l-0.221-1.543l3.082-0.44V60.962l-3.082,0.264l-0.219-1.541l5.287-1.365
			l2.201-0.177V77.04l3.303,0.44l-0.221,1.543L584.045,78.891z M581.84,48.584l3.176-0.22l1.232,0.22l0.219,2.467l-0.484,2.114
			l-3.127,0.265l-1.189-0.265l-0.266-2.467L581.84,48.584z"/>
		<path fill="#231F20" d="M601.709,76.159l5.334-15.946l-2.027-0.44l0.219-1.541l3.879,0.132l3.652-0.132l0.221,1.541l-2.818,0.44
			l-7.223,18.105l-3.217,1.321l-7.666-19.427l-2.73-0.44l0.221-1.541l5.066,0.132l4.625-0.132l0.221,1.541l-2.908,0.44l4.801,12.907
			L601.709,76.159z"/>
		<path fill="#231F20" d="M617.307,67.746c0,5.022,2.688,8.589,7.314,8.589c1.762,0,3.875-0.836,5.504-1.85l0.707,1.674
			c-2.117,1.454-4.891,2.688-7.709,3.48c-5.33,0-10.133-3.789-10.133-10.704c0-6.521,3.922-10.001,9.955-11.321
			c5.816,0,7.797,3.657,7.797,8.281v1.851H617.307z M626.162,65.543c0-3.392-0.66-5.727-4.051-5.727
			c-2.689,0-4.406,2.511-4.76,6.167L626.162,65.543z"/>
		<path fill="#231F20" d="M649.334,74.574c1.32,1.63,3.744,2.774,6.211,2.774c3.789,0,5.992-2.379,5.992-5.594
			c0-2.995-1.939-4.714-4.584-5.859l-5.328-2.334c-3.172-1.367-5.771-3.393-5.771-7.312c0-4.803,4.406-7.622,10.529-8.899
			c2.775,0,5.857,0.925,8.061,2.556v5.947h-2.203l-1.277-4.009c-1.145-1.189-2.555-2.159-5.199-2.159
			c-3.479,0-5.549,1.895-5.549,4.846c0,2.423,1.719,3.922,4.141,4.979l5.066,2.203c3.48,1.496,6.52,3.699,6.475,8.191
			c0,4.142-2.818,8.15-11.1,9.867c-4.053,0-6.785-1.144-9.119-2.993l-0.971-5.947h3.086L649.334,74.574z"/>
		<path fill="#231F20" d="M673.566,67.746c0,5.022,2.688,8.589,7.311,8.589c1.762,0,3.877-0.836,5.508-1.85l0.703,1.674
			c-2.113,1.454-4.889,2.688-7.709,3.48c-5.33,0-10.131-3.789-10.131-10.704c0-6.521,3.92-10.001,9.957-11.321
			c5.812,0,7.797,3.657,7.797,8.281v1.851H673.566z M682.418,65.543c0-3.392-0.66-5.727-4.051-5.727
			c-2.688,0-4.406,2.511-4.758,6.167L682.418,65.543z"/>
		<path fill="#231F20" d="M696.43,64.002l5.021-6.168h3.523v4.405h-3.26c-1.057,0.222-2.996,1.674-4.186,3.128l-0.881,1.057v10.485
			l4.627,0.439l-0.221,1.675l-6.387-0.133l-4.936,0.133l-0.221-1.543l3.086-0.44V60.962l-3.086,0.264l-0.221-1.541l5.287-1.365
			l1.762-0.133L696.43,64.002z"/>
		<path fill="#231F20" d="M718.236,76.159l5.33-15.946l-2.027-0.44l0.219-1.541l3.879,0.132l3.656-0.132l0.221,1.541l-2.82,0.44
			l-7.225,18.105l-3.215,1.321l-7.666-19.427l-2.73-0.44l0.221-1.541l5.066,0.132l4.623-0.132l0.221,1.541l-2.908,0.44l4.805,12.907
			L718.236,76.159z"/>
		<path fill="#231F20" d="M736.564,78.891l-5.066,0.133l-0.221-1.543l3.082-0.44V60.962l-3.082,0.264l-0.221-1.541l5.287-1.365
			l2.203-0.177V77.04l3.301,0.44l-0.219,1.543L736.564,78.891z M734.359,48.584l3.174-0.22l1.232,0.22l0.221,2.467l-0.484,2.114
			l-3.127,0.265l-1.189-0.265l-0.266-2.467L734.359,48.584z"/>
		<path fill="#231F20" d="M756.121,60.653c-0.703-0.529-1.363-0.705-2.553-0.705c-2.996,0-5.287,3.349-5.287,8.151
			c0,4.712,2.557,8.235,6.871,8.235c1.676,0,3.438-0.836,4.979-1.85l0.705,1.674c-2.027,1.454-4.273,2.556-7.18,3.48
			c-5.639,0-9.824-3.7-9.824-10.484c0-6.916,5.066-10.221,10.486-11.541c2.023,0,4.758,1.013,6.078,2.202v4.405h-3.26
			L756.121,60.653z"/>
		<path fill="#231F20" d="M767.799,67.746c0,5.022,2.688,8.589,7.311,8.589c1.762,0,3.877-0.836,5.508-1.85l0.703,1.674
			c-2.113,1.454-4.889,2.688-7.709,3.48c-5.328,0-10.131-3.789-10.131-10.704c0-6.521,3.92-10.001,9.957-11.321
			c5.812,0,7.797,3.657,7.797,8.281v1.851H767.799z M776.652,65.543c0-3.392-0.662-5.727-4.053-5.727
			c-2.688,0-4.406,2.511-4.758,6.167L776.652,65.543z"/>
		<path fill="#231F20" d="M796.08,60.742c-0.439-0.265-1.762-0.97-3.348-0.97c-1.719,0-3.35,0.926-3.35,2.6
			c0,1.409,1.105,2.29,3.086,3.303l3.391,1.718c2.951,1.499,4.141,3.173,4.141,5.684c0,3.964-3.213,5.462-8.281,6.563
			c-2.688,0-5.549-1.321-6.695-1.981l-0.838-4.979h2.818l1.498,3.655c0.928,0.616,2.205,1.103,3.615,1.103
			c2.334,0,3.523-1.498,3.523-3.348c0-1.719-0.924-2.468-3.217-3.657l-3.48-1.806c-1.893-0.97-3.699-2.644-3.699-5.109
			c0-3.084,2.865-4.803,7.975-5.903c2.379,0,4.932,1.058,6.209,1.981v4.406h-2.336L796.08,60.742z"/>
	</g>
	<g>
		<g>
			<g>
				<polygon fill="#231F20" points="30.334,37.413 30.4,37.413 30.4,37.39 30.334,37.39 30.334,37.413 				"/>
				<path fill="#231F20" d="M38.232,30.827c-1.651-0.252-3.211-0.494-4.62-0.494c-0.758,0-1.419,0.074-2.012,0.217l-0.33-9.218
					v-1.528c0.652-0.272,1.44-0.4,2.443-0.4c1.288,0,2.763,0.215,4.32,0.445c1.372,0.203,2.781,0.399,4.226,0.492l0.397,11.018
					C41.173,31.276,39.683,31.053,38.232,30.827L38.232,30.827z M22.502,30.827c-1.451,0.226-2.94,0.449-4.424,0.532l0.396-11.018
					c1.445-0.093,2.855-0.29,4.227-0.492c1.557-0.229,3.031-0.445,4.32-0.445c1.002,0,1.791,0.128,2.443,0.4v1.528l-0.329,9.218
					c-0.591-0.143-1.252-0.217-2.011-0.217C25.712,30.333,24.154,30.575,22.502,30.827L22.502,30.827z M45.919,24.327V22.23h-1.294
					v-3.579h-0.873c-1.849,0-3.687-0.268-5.465-0.529c-1.624-0.238-3.156-0.464-4.574-0.464c-1.333,0-2.432,0.209-3.346,0.64
					c-0.916-0.43-2.016-0.64-3.348-0.64c-1.417,0-2.95,0.227-4.574,0.464c-1.777,0.261-3.617,0.529-5.466,0.529H16.11v3.579h-1.294
					v2.097h1.294v2.836h-1.278v2.095h1.278v3.884h0.871c1.977,0,3.914-0.3,5.787-0.589c1.582-0.243,3.08-0.476,4.355-0.476
					c1.029,0,1.805,0.151,2.401,0.462l0,0h1.684l0,0c0.599-0.311,1.373-0.462,2.403-0.462c1.277,0,2.771,0.233,4.354,0.476
					c1.873,0.289,3.813,0.589,5.787,0.589h0.873v-3.884h1.277v-2.095h-1.277v-2.836H45.919L45.919,24.327z"/>
				<path fill="#231F20" d="M22.74,21.433c-0.087,0.011-0.172,0.026-0.258,0.037c-0.821,0.123-1.655,0.243-2.497,0.34l-0.049,1.414
					c0.932-0.104,1.847-0.239,2.749-0.373c0.019-0.002,0.037-0.004,0.055-0.009V21.433L22.74,21.433z"/>
				<path fill="#231F20" d="M23.787,21.283v1.41c1.486-0.207,2.851-0.354,4.032-0.258l0.051-1.39
					C26.606,20.948,25.225,21.088,23.787,21.283L23.787,21.283z"/>
				<path fill="#231F20" d="M22.74,27.824c-0.087,0.013-0.172,0.024-0.258,0.04c-0.896,0.13-1.807,0.263-2.728,0.363l-0.049,1.412
					c1.009-0.109,2.004-0.253,2.979-0.396c0.019-0.002,0.037-0.005,0.055-0.007V27.824L22.74,27.824z"/>
				<path fill="#231F20" d="M23.787,27.677v1.409c1.391-0.192,2.677-0.336,3.801-0.275l0.052-1.39
					C26.439,27.358,25.139,27.492,23.787,27.677L23.787,27.677z"/>
				<path fill="#231F20" d="M22.525,24.661v1.412c0.053-0.007,0.107-0.017,0.16-0.024c1.866-0.273,3.572-0.526,5.02-0.429
					l0.047-1.387C26.157,24.133,24.372,24.389,22.525,24.661L22.525,24.661z"/>
				<path fill="#231F20" d="M21.476,24.812c-0.531,0.075-1.064,0.146-1.604,0.208l-0.051,1.409c0.558-0.059,1.111-0.132,1.656-0.208
					V24.812L21.476,24.812z"/>
				<path fill="#231F20" d="M36.311,21.201c-1.21-0.148-2.37-0.238-3.443-0.157l0.048,1.39c1.01-0.082,2.157,0.015,3.395,0.175
					V21.201L36.311,21.201z"/>
				<path fill="#231F20" d="M40.748,21.809c-0.84-0.097-1.675-0.217-2.497-0.34c-0.299-0.042-0.596-0.087-0.894-0.127v1.411
					c0.228,0.03,0.459,0.064,0.693,0.098c0.9,0.133,1.817,0.269,2.75,0.373L40.748,21.809L40.748,21.809z"/>
				<path fill="#231F20" d="M36.023,24.364c-1.063-0.122-2.086-0.191-3.043-0.131l0.051,1.387c0.903-0.061,1.909,0.014,2.992,0.147
					V24.364L36.023,24.364z"/>
				<path fill="#231F20" d="M40.864,25.02c-0.881-0.099-1.755-0.227-2.613-0.354c-0.396-0.057-0.791-0.116-1.18-0.17v1.411
					c0.32,0.044,0.646,0.093,0.979,0.142c0.938,0.138,1.894,0.277,2.864,0.38L40.864,25.02L40.864,25.02z"/>
				<path fill="#231F20" d="M38.118,29.253c0.952,0.14,1.923,0.28,2.91,0.386l-0.049-1.412c-0.922-0.1-1.831-0.233-2.729-0.363
					c-0.045-0.01-0.087-0.015-0.133-0.02V29.253L38.118,29.253z"/>
				<path fill="#231F20" d="M37.071,27.693c-1.397-0.193-2.741-0.334-3.979-0.272l0.051,1.39c1.162-0.062,2.489,0.089,3.928,0.292
					V27.693L37.071,27.693z"/>
				<path fill="#231F20" d="M28.551,50.235l1.817-4.543l1.818,4.543l4.885,0.326l-3.764,3.133l1.203,4.742l-4.143-2.609
					l-4.142,2.609l1.2-4.742l-3.76-3.133L28.551,50.235L28.551,50.235z M17.482,48.623v0.002l7.896,5.738l-3.042,9.354
					c0.003,0.018,0.011,0.033,0.025,0.046c0.015,0.012,0.032,0.012,0.049,0.012l7.958-5.789l7.955,5.785
					c0.018,0.004,0.036,0,0.049-0.008c0.026-0.021,0.031-0.056,0.017-0.086l-3.028-9.314l7.895-5.737l-0.002-0.002
					c0.039-0.015,0.058-0.052,0.046-0.089c-0.009-0.033-0.05-0.05-0.087-0.04v-0.002h-9.759l-3.014-9.281h-0.004
					c0-0.04-0.028-0.074-0.066-0.074c-0.036,0-0.066,0.034-0.066,0.074h-0.004l-3.014,9.281h-9.758l-0.003,0.005
					c-0.036-0.014-0.077,0.007-0.088,0.04C17.422,48.571,17.442,48.611,17.482,48.623L17.482,48.623z"/>
				<path fill="#231F20" d="M49.961,60.353c-0.71,0.787-1.634,1.331-2.657,1.577c0.143-1.045,0.595-2.022,1.306-2.802
					c0.718-0.79,1.643-1.342,2.661-1.582C51.126,58.589,50.674,59.568,49.961,60.353L49.961,60.353z M46.143,54.213
					c-0.136-1.056,0.048-2.114,0.521-3.053c0.697,0.785,1.146,1.759,1.283,2.815c0.141,1.05-0.043,2.108-0.517,3.047
					C46.731,56.237,46.28,55.261,46.143,54.213L46.143,54.213z M48.256,46.225c-0.197-1.048-0.078-2.117,0.336-3.081
					c0.744,0.741,1.25,1.689,1.452,2.735c0.203,1.042,0.083,2.109-0.337,3.078C48.963,48.212,48.458,47.263,48.256,46.225
					L48.256,46.225z M53.3,48.553c0.074,1.053-0.167,2.102-0.701,3.019c-0.536,0.917-1.325,1.643-2.275,2.095
					c-0.073-1.053,0.165-2.102,0.699-3.017C51.563,49.729,52.353,49.007,53.3,48.553L53.3,48.553z M45.569,68.398
					c-0.859,0.623-1.867,0.964-2.925,0.996c0.355-0.996,0.999-1.855,1.855-2.476c0.865-0.627,1.873-0.969,2.929-0.994
					C47.072,66.915,46.428,67.775,45.569,68.398L45.569,68.398z M43.098,61.603c0.086-1.062,0.484-2.058,1.142-2.879
					c0.521,0.91,0.759,1.958,0.673,3.019c-0.079,1.058-0.479,2.059-1.137,2.88C43.255,63.706,43.016,62.663,43.098,61.603
					L43.098,61.603z M40.343,68.719c-0.298,1.018-0.894,1.911-1.708,2.58c-0.32-1-0.34-2.073-0.041-3.094
					c0.303-1.02,0.901-1.915,1.711-2.581C40.627,66.621,40.644,67.697,40.343,68.719L40.343,68.719z M41.939,73.325
					c-0.554,0.898-1.363,1.608-2.334,2.04c-0.675,0.302-1.389,0.453-2.126,0.453l0,0c-0.315,0-0.629-0.028-0.941-0.084
					c0.556-0.898,1.363-1.604,2.332-2.037C39.839,73.263,40.908,73.138,41.939,73.325L41.939,73.325z M32.823,73.738
					c0.512-0.939,1.278-1.692,2.209-2.173c0.108,1.041-0.097,2.094-0.603,3.035c-0.501,0.933-1.27,1.686-2.205,2.175
					C32.118,75.727,32.32,74.672,32.823,73.738L32.823,73.738z M21.027,75.365c-0.969-0.432-1.777-1.142-2.333-2.04
					c1.031-0.188,2.097-0.062,3.071,0.372c0.968,0.433,1.775,1.139,2.331,2.037C23.062,75.924,21.993,75.797,21.027,75.365
					L21.027,75.365z M20.292,68.717c-0.3-1.02-0.283-2.096,0.037-3.093c0.811,0.666,1.407,1.558,1.711,2.579
					c0.299,1.022,0.281,2.096-0.042,3.096C21.184,70.63,20.589,69.736,20.292,68.717L20.292,68.717z M25.603,71.565
					c0.929,0.48,1.697,1.233,2.207,2.167c0.501,0.939,0.709,1.994,0.6,3.043c-0.936-0.489-1.704-1.242-2.206-2.175
					C25.7,73.659,25.493,72.606,25.603,71.565L25.603,71.565z M15.067,68.398c-0.861-0.623-1.503-1.483-1.863-2.474
					c1.057,0.025,2.067,0.367,2.927,0.994c0.862,0.62,1.504,1.479,1.86,2.476C16.933,69.362,15.924,69.021,15.067,68.398
					L15.067,68.398z M16.395,58.724c0.657,0.821,1.055,1.816,1.141,2.876c0.083,1.063-0.158,2.106-0.679,3.022
					c-0.661-0.821-1.056-1.822-1.139-2.882C15.637,60.682,15.875,59.634,16.395,58.724L16.395,58.724z M10.673,60.353
					c-0.711-0.784-1.163-1.764-1.309-2.807c1.018,0.24,1.943,0.792,2.656,1.582c0.713,0.779,1.165,1.757,1.308,2.802
					C12.308,61.684,11.383,61.14,10.673,60.353L10.673,60.353z M10.311,53.667c-0.948-0.452-1.74-1.178-2.275-2.095
					c-0.535-0.917-0.772-1.966-0.7-3.019c0.946,0.454,1.739,1.176,2.276,2.097C10.144,51.565,10.384,52.614,10.311,53.667
					L10.311,53.667z M10.589,45.875c0.201-1.045,0.709-1.99,1.452-2.731c0.416,0.964,0.534,2.033,0.337,3.078
					c-0.201,1.042-0.709,1.99-1.454,2.735C10.506,47.987,10.387,46.92,10.589,45.875L10.589,45.875z M12.686,53.973
					c0.139-1.054,0.587-2.027,1.285-2.812c0.474,0.938,0.658,1.997,0.521,3.052c-0.138,1.049-0.587,2.025-1.287,2.811
					C12.73,56.084,12.548,55.025,12.686,53.973L12.686,53.973z M49.963,55.296c1.626-0.49,2.991-1.562,3.841-3.021
					c0.849-1.458,1.112-3.176,0.74-4.835l-0.166-0.728l-0.715,0.211c-0.826,0.249-1.58,0.644-2.238,1.167
					c0.151-0.812,0.151-1.65-0.01-2.474c-0.319-1.665-1.251-3.13-2.622-4.13l-0.605-0.442l-0.397,0.634
					c-0.9,1.433-1.22,3.143-0.906,4.808c0.32,1.652,1.245,3.111,2.603,4.113c-0.251,0.569-0.422,1.167-0.506,1.779
					c-0.403-1.106-1.092-2.096-2.017-2.86l-0.577-0.479l-0.438,0.607c-0.984,1.378-1.408,3.063-1.191,4.747
					c0.218,1.672,1.061,3.196,2.371,4.281l0.031,0.019c-0.385,0.525-0.689,1.094-0.904,1.699c-0.167-1.165-0.633-2.273-1.384-3.217
					l-0.466-0.585l-0.553,0.506c-1.246,1.146-2.009,2.704-2.146,4.397c-0.131,1.687,0.381,3.344,1.435,4.675l0.029,0.033
					c-0.488,0.428-0.898,0.927-1.238,1.473c0.081-1.178-0.15-2.361-0.688-3.437l-0.336-0.668l-0.644,0.381
					c-1.458,0.864-2.526,2.234-3.009,3.86c-0.475,1.627-0.32,3.352,0.44,4.871l0.018,0.039c-0.563,0.318-1.07,0.718-1.512,1.184
					c0.32-1.134,0.34-2.339,0.035-3.501l-0.19-0.725l-0.71,0.237c-1.602,0.545-2.929,1.664-3.741,3.157
					c-0.773,1.441-0.984,3.107-0.607,4.697c-0.214,0.148-0.438,0.3-0.669,0.459c-0.235-0.159-0.458-0.311-0.672-0.459
					c0.378-1.59,0.167-3.256-0.609-4.699c-0.808-1.491-2.137-2.61-3.739-3.155l-0.71-0.237l-0.189,0.725
					c-0.304,1.162-0.285,2.367,0.034,3.501c-0.443-0.466-0.949-0.865-1.513-1.184l0.018-0.039c0.76-1.52,0.917-3.244,0.44-4.871
					c-0.482-1.626-1.552-2.996-3.01-3.86l-0.642-0.381l-0.336,0.668c-0.542,1.075-0.767,2.259-0.688,3.437
					c-0.339-0.549-0.752-1.045-1.237-1.473l0.025-0.033c1.059-1.331,1.569-2.988,1.436-4.678c-0.135-1.69-0.897-3.249-2.146-4.395
					l-0.552-0.506l-0.465,0.585c-0.75,0.943-1.219,2.052-1.384,3.217c-0.217-0.605-0.519-1.174-0.905-1.699l0.031-0.019
					c1.309-1.085,2.152-2.609,2.372-4.281c0.216-1.684-0.206-3.369-1.193-4.747l-0.436-0.607l-0.576,0.479
					c-0.929,0.765-1.617,1.754-2.018,2.862c-0.085-0.613-0.254-1.212-0.509-1.781c1.361-1.002,2.286-2.461,2.604-4.113
					c0.316-1.668-0.007-3.375-0.906-4.808l-0.398-0.634l-0.604,0.442c-1.371,1-2.303,2.466-2.624,4.127
					c-0.159,0.826-0.161,1.665-0.009,2.477c-0.658-0.523-1.414-0.918-2.237-1.167l-0.717-0.211l-0.164,0.728
					c-0.374,1.66-0.111,3.377,0.739,4.835c0.849,1.46,2.213,2.531,3.84,3.021l0.633,0.189c0.064,0.528,0.197,1.053,0.389,1.557
					c-0.903-0.577-1.934-0.927-3.021-1.018l-0.743-0.061l-0.01,0.75c-0.024,1.699,0.588,3.321,1.719,4.572
					c1.133,1.256,2.689,2.022,4.383,2.164l0.657,0.056c0.173,0.509,0.411,0.992,0.703,1.44c-0.736-0.276-1.515-0.421-2.316-0.421
					c-0.284,0-0.568,0.017-0.848,0.051l-0.741,0.096l0.145,0.731c0.328,1.671,1.262,3.135,2.629,4.129
					c1.137,0.824,2.488,1.263,3.9,1.263c0.277,0,0.559-0.018,0.833-0.054l0.654-0.083c0.277,0.463,0.607,0.883,0.987,1.265
					c-1.06-0.159-2.148-0.065-3.172,0.293l-0.709,0.246l0.294,0.688c0.666,1.563,1.883,2.804,3.423,3.491
					c0.857,0.382,1.763,0.575,2.697,0.575c0.745,0,1.481-0.125,2.186-0.367l0.521-0.183c0.872,0.739,1.854,1.475,3.202,2.401
					c-0.614,0.405-1.296,0.851-2.058,1.337l1.313,0.814c0.742-0.479,1.399-0.909,2-1.309c0.597,0.399,1.255,0.83,1.997,1.309
					l1.314-0.814c-0.762-0.486-1.443-0.932-2.057-1.337c1.345-0.927,2.328-1.662,3.199-2.401l0.523,0.183
					c0.707,0.242,1.444,0.367,2.186,0.367l0,0c0.934,0,1.84-0.193,2.697-0.571c1.543-0.691,2.76-1.932,3.423-3.495l0.292-0.688
					l-0.704-0.246c-1.025-0.358-2.116-0.452-3.175-0.29c0.38-0.381,0.71-0.805,0.987-1.268l0.653,0.083
					c0.277,0.036,0.557,0.054,0.835,0.054l0,0c1.413,0,2.76-0.438,3.9-1.263c1.366-0.994,2.3-2.458,2.629-4.129l0.145-0.731
					l-0.741-0.096c-0.28-0.034-0.567-0.051-0.848-0.051c-0.798,0-1.58,0.145-2.315,0.421c0.292-0.448,0.526-0.932,0.703-1.44
					l0.655-0.056c1.695-0.142,3.25-0.908,4.382-2.164c1.132-1.251,1.744-2.873,1.72-4.572l-0.007-0.75l-0.749,0.061
					c-1.085,0.091-2.115,0.44-3.018,1.018c0.192-0.504,0.326-1.028,0.391-1.557L49.963,55.296L49.963,55.296z"/>
				<path fill="#231F20" d="M50.144,70.056c-1.423,2.08-3.051,4.013-5.015,5.892c-6.054,5.562-12.852,8.634-14.768,9.431
					c-1.915-0.797-8.713-3.869-14.771-9.431c-1.962-1.879-3.59-3.812-5.012-5.892C3.701,59.983,2.797,48.309,2.792,39.234h0.009
					l27.567-1.532l27.562,1.529C57.922,48.304,57.019,59.983,50.144,70.056L50.144,70.056z M4.263,15.801
					c5.125-0.569,16.647-1.716,26.105-1.716c9.456,0,20.978,1.147,26.103,1.716l1.434,20.193H30.368H2.829L4.263,15.801
					L4.263,15.801z M60.724,13.466l-1.221-0.152c-0.163-0.021-16.445-2.048-29.127-2.048c-0.002,0-0.005,0-0.007,0
					c-0.004,0-0.007,0-0.011,0c-12.68,0-28.962,2.027-29.122,2.048l-1.223,0.152v22.527H0v3.144c0,9.49,0.94,21.755,8.273,32.496
					c1.512,2.211,3.227,4.254,5.285,6.236l-0.002,0.003c0.015,0.012,0.028,0.023,0.042,0.033c3.978,3.829,9.235,7.44,16.756,11.63
					v0.01c0.003-0.005,0.003-0.005,0.007-0.005c0.001,0,0.003,0,0.007,0.005v-0.01c7.52-4.189,12.777-7.801,16.755-11.63
					c0.015-0.01,0.026-0.021,0.04-0.033v-0.003c2.057-1.982,3.772-4.025,5.285-6.236c7.333-10.74,8.273-23.005,8.273-32.496v-0.448
					h0.002V13.466L60.724,13.466z"/>
			</g>
		</g>
		<g>
			<path fill="#231F20" d="M104.289,36.022l-2.725,0.086l-0.144-1.014l1.421-0.29V26.51c0-1.507-0.697-2.175-1.857-2.175
				c-0.869,0-1.999,0.638-3.073,1.306l-0.872,0.551v8.612l1.596,0.29l-0.145,1.014l-2.756-0.086l-3.044,0.086l-0.143-1.014
				l1.738-0.29V17.057l-1.043,0.175l-5.888-0.087v17.571l3.335,0.378l-0.144,1.014l-4.697-0.086l-4.873,0.086l-0.145-1.014
				l3.479-0.378V17.145l-4.348,0.087l-1.333,3.624h-1.133v-5.131l8.322,0.059l7.134-0.059l3.103-0.349h0.984v9.395l4.234-2.753
				c3.712,0,4.321,1.391,4.321,5.074v7.713l2.174,0.29l-0.145,1.014L104.289,36.022z"/>
			<path fill="#231F20" d="M111.83,28.686c0,3.305,1.768,5.654,4.813,5.654c1.16,0,2.552-0.55,3.625-1.216l0.463,1.1
				c-1.391,0.957-3.218,1.769-5.075,2.291c-3.507,0-6.669-2.493-6.669-7.046c0-4.292,2.582-6.583,6.554-7.452
				c3.827,0,5.133,2.407,5.133,5.45v1.218H111.83z M117.658,27.236c0-2.233-0.435-3.771-2.667-3.771c-1.771,0-2.9,1.653-3.133,4.06
				L117.658,27.236z"/>
			<path fill="#231F20" d="M140.712,16.769l0.143-1.015l3.712,0.086l3.394-0.086l0.144,1.015l-2.465,0.376v11.83
				c0,3.77-1.537,6.293-7.307,7.628c-5.712,0-7.742-3.076-7.742-7.687V17.145l-2.61-0.376l0.146-1.015l4,0.086l3.973-0.086
				l0.145,1.015l-2.464,0.376v12.208c0,3.595,1.537,5.653,4.843,5.653c3.014,0,4.698-2.028,4.698-5.739V17.145L140.712,16.769z"/>
			<path fill="#231F20" d="M152.021,36.022l-3.333,0.086l-0.147-1.014l2.03-0.29V24.219l-2.03,0.173l-0.144-1.012l3.479-0.899
				l1.248-0.089l0.145,2.437l4.29-2.812c3.714,0,4.321,1.247,4.321,4.726v8.062l2.205,0.29l-0.146,1.014l-3.334-0.086l-2.784,0.086
				l-0.146-1.014l1.449-0.29V26.51c0-1.507-0.666-2.175-1.914-2.175c-1.014,0-2.029,0.638-3.014,1.306l-0.871,0.579v8.584
				l1.595,0.29l-0.146,1.014L152.021,36.022z"/>
			<path fill="#231F20" d="M168.636,36.022l-3.335,0.086l-0.145-1.014l2.029-0.29V24.219l-2.029,0.173l-0.146-1.012l3.479-0.899
				l1.45-0.118v12.441l2.176,0.29l-0.146,1.014L168.636,36.022z M167.186,16.072l2.088-0.145l0.812,0.145l0.145,1.623l-0.32,1.394
				l-2.059,0.172l-0.784-0.172l-0.171-1.625L167.186,16.072z"/>
			<path fill="#231F20" d="M180.263,34.224l3.511-10.495l-1.335-0.292l0.145-1.015l2.552,0.087l2.406-0.087l0.145,1.015
				l-1.857,0.292l-4.754,11.916l-2.116,0.871l-5.046-12.786l-1.797-0.292l0.145-1.015l3.334,0.087l3.045-0.087l0.146,1.015
				l-1.916,0.292l3.162,8.495L180.263,34.224z"/>
			<path fill="#231F20" d="M190.528,28.686c0,3.305,1.77,5.654,4.816,5.654c1.158,0,2.549-0.55,3.623-1.216l0.464,1.1
				c-1.392,0.957-3.218,1.769-5.075,2.291c-3.508,0-6.668-2.493-6.668-7.046c0-4.292,2.581-6.583,6.552-7.452
				c3.828,0,5.134,2.407,5.134,5.45v1.218H190.528z M196.357,27.236c0-2.233-0.435-3.771-2.668-3.771c-1.768,0-2.9,1.653-3.13,4.06
				L196.357,27.236z"/>
			<path fill="#231F20" d="M205.869,26.22l3.305-4.058h2.322v2.899h-2.146c-0.698,0.144-1.972,1.102-2.755,2.06l-0.579,0.695v6.9
				l3.044,0.29l-0.146,1.103l-4.202-0.086l-3.249,0.086l-0.146-1.014l2.031-0.29V24.219l-2.031,0.173l-0.144-1.012l3.479-0.899
				l1.159-0.089L205.869,26.22z"/>
			<path fill="#231F20" d="M220.63,24.075c-0.291-0.174-1.159-0.638-2.204-0.638c-1.131,0-2.205,0.608-2.205,1.711
				c0,0.929,0.725,1.508,2.03,2.174l2.232,1.133c1.943,0.985,2.727,2.085,2.727,3.738c0,2.611-2.116,3.596-5.452,4.321
				c-1.767,0-3.652-0.871-4.407-1.305l-0.55-3.276h1.855l0.987,2.406c0.608,0.407,1.449,0.727,2.377,0.727
				c1.536,0,2.319-0.987,2.319-2.206c0-1.133-0.608-1.623-2.117-2.407l-2.29-1.187c-1.248-0.64-2.436-1.741-2.436-3.365
				c0-2.03,1.886-3.161,5.249-3.885c1.565,0,3.247,0.695,4.087,1.303v2.9h-1.538L220.63,24.075z"/>
			<path fill="#231F20" d="M228.633,36.022l-3.335,0.086l-0.143-1.014l2.029-0.29V24.219l-2.029,0.173l-0.145-1.012l3.478-0.899
				l1.451-0.118v12.441l2.176,0.29l-0.146,1.014L228.633,36.022z M227.184,16.072l2.088-0.145l0.812,0.145l0.145,1.623l-0.319,1.394
				l-2.06,0.172l-0.782-0.172l-0.174-1.625L227.184,16.072z"/>
			<path fill="#231F20" d="M243.017,42.894v-2.899h2.492l2.873-4.379l-1.16,0.349l-4.872-12.208h-4.378v8.845
				c0,0.839,0.318,1.739,1.537,1.739c0.841,0,1.739-0.405,2.552-0.813l0.492,0.988l-3.652,2c-3.249,0-3.684-1.159-3.684-3.77v-8.642
				h-2.812V23.61l1.015-1.014h1.883V20.71l1.886-1.884h0.752v3.625h9.134l0.146,0.985l-1.916,0.292l3.22,8.495l0.233,2l3.595-10.495
				l-1.334-0.292l0.145-1.015l2.552,0.087l2.407-0.087l0.144,1.015l-1.855,0.292l-4.698,11.859l-3.248,7.307H243.017z"/>
			<path fill="#231F20" d="M275.376,28.975c0,4.321-2.638,6.814-7.134,7.54c-3.856,0-6.465-2.988-6.465-6.931
				c0-4.349,2.638-6.814,7.133-7.566C272.769,22.017,275.376,25.032,275.376,28.975z M268.969,35.094
				c2.318,0,3.508-2.378,3.508-5.511c0-3.681-1.768-6.146-4.291-6.146c-2.349,0-3.51,2.378-3.51,5.538
				C264.677,32.281,266.388,35.094,268.969,35.094z"/>
			<path fill="#231F20" d="M281.9,22.741h3.626v1.362H281.9v10.701l3.334,0.202l-0.144,1.103l-4.495-0.086l-3.334,0.086
				l-0.146-1.014l2.029-0.29V24.103h-2.551V23.61l0.873-1.014h1.678v-0.291c0-1.739,0.552-2.87,1.597-4.059l2.435-2.754h3.654v2.32
				h-3.771l-0.551,0.782c-0.404,0.552-0.609,1.393-0.609,3.277V22.741z"/>
			<path fill="#231F20" d="M307.709,36.108l-4.697-0.086l-4.873,0.086l-0.146-1.014l3.482-0.378V17.145l-4.35,0.058l-1.336,3.681
				h-1.13v-5.13l8.322,0.086l8.35-0.086v5.13h-1.128l-1.335-3.681l-4.35-0.058v17.571l3.336,0.378L307.709,36.108z"/>
			<path fill="#231F20" d="M312.871,28.686c0,3.305,1.767,5.654,4.813,5.654c1.162,0,2.551-0.55,3.624-1.216l0.462,1.1
				c-1.388,0.957-3.217,1.769-5.072,2.291c-3.51,0-6.671-2.493-6.671-7.046c0-4.292,2.58-6.583,6.555-7.452
				c3.828,0,5.132,2.407,5.132,5.45v1.218H312.871z M318.699,27.236c0-2.233-0.436-3.771-2.668-3.771c-1.77,0-2.9,1.653-3.131,4.06
				L318.699,27.236z"/>
			<path fill="#231F20" d="M328.326,35.094l-0.145,1.014l-2.261-0.086l-2.99,0.086l-0.143-1.014l2.031-0.29l4.29-5.278l-4.204-5.77
				l-1.799-0.291l0.146-1.043l3.337,0.087l2.755-0.087l0.144,1.043l-1.132,0.291l2.147,3.217l0.231,0.755l2.754-3.972l-1.418-0.291
				l0.145-1.043l2.265,0.087l2.984-0.087l0.144,1.043l-2.088,0.291l-3.828,4.639l4.554,6.409l1.795,0.29l-0.142,1.014l-3.337-0.086
				l-2.753,0.086l-0.148-1.014l1.19-0.29l-2.583-3.74l-0.23-0.668l-3.074,4.408L328.326,35.094z"/>
			<path fill="#231F20" d="M344.766,22.017c3.654,0,4.584,0.927,4.584,4.61v5.684c0,1.246,0.202,1.711,0.492,2.175h1.451
				l0.114,1.013l-3.74,0.726l-0.898-2.233l-3.452,2.523c-2.495,0-4.264-1.391-4.264-3.713c0-1.041,0.378-1.797,1.02-2.666
				l6.523-2.175v-1.45c0-1.74-0.148-2.782-1.713-2.782c-0.782,0-1.738,0.26-2.375,0.521l-0.494,2.291h-2.493v-2.204L344.766,22.017z
				 M346.595,29.121l-4.206,1.739c-0.434,0.435-0.579,1.016-0.579,1.624c0,1.479,0.84,2.002,1.681,2.002
				c0.812,0,1.507-0.495,1.885-0.754l1.219-0.842V29.121z"/>
			<path fill="#231F20" d="M360.398,24.075c-0.29-0.174-1.16-0.638-2.203-0.638c-1.132,0-2.203,0.608-2.203,1.711
				c0,0.929,0.724,1.508,2.029,2.174l2.232,1.133c1.94,0.985,2.724,2.085,2.724,3.738c0,2.611-2.114,3.596-5.45,4.321
				c-1.771,0-3.654-0.871-4.406-1.305l-0.55-3.276h1.853l0.987,2.406c0.61,0.407,1.45,0.727,2.379,0.727
				c1.535,0,2.319-0.987,2.319-2.206c0-1.133-0.611-1.623-2.117-2.407l-2.294-1.187c-1.247-0.64-2.431-1.741-2.431-3.365
				c0-2.03,1.883-3.161,5.249-3.885c1.565,0,3.246,0.695,4.086,1.303v2.9h-1.536L360.398,24.075z"/>
			<path fill="#231F20" d="M377.593,22.017c3.656,0,4.582,0.927,4.582,4.61v5.684c0,1.246,0.203,1.711,0.495,2.175h1.449
				l0.118,1.013l-3.742,0.726l-0.903-2.233l-3.449,2.523c-2.493,0-4.26-1.391-4.26-3.713c0-1.041,0.376-1.797,1.014-2.666
				l6.523-2.175v-1.45c0-1.74-0.146-2.782-1.71-2.782c-0.782,0-1.739,0.26-2.376,0.521l-0.492,2.291h-2.495v-2.204L377.593,22.017z
				 M379.419,29.121l-4.201,1.739c-0.437,0.435-0.581,1.016-0.581,1.624c0,1.479,0.839,2.002,1.681,2.002
				c0.811,0,1.507-0.495,1.883-0.754l1.218-0.842V29.121z"/>
			<path fill="#231F20" d="M384.088,24.103V23.61l1.016-1.014h1.883V20.71l1.885-1.884h0.757V22.8h4.376v1.303h-4.346v8.498
				c0,0.839,0.314,1.739,1.534,1.739c0.843,0,1.479-0.29,2.294-0.696l0.49,0.986l-3.391,1.885c-3.249,0-3.683-1.159-3.683-3.77
				v-8.642H384.088z"/>
			<path fill="#231F20" d="M406.244,29.295l-1.883,5.421l2.523,0.378l-0.148,1.014l-3.479-0.086l-3.104,0.086l-0.144-1.014
				l2.259-0.319l7.193-18.79l1.738-0.493l7.568,19.283l2.262,0.319l-0.146,1.014l-4.002-0.086l-3.828,0.086l-0.143-1.014
				l2.467-0.378l-1.971-5.421H406.244z M410.1,20.277l-0.203-1.566l-3.188,9.22h6.174L410.1,20.277z"/>
			<path fill="#231F20" d="M433.355,32.311c0,1.246,0.148,1.711,0.35,2.175h1.447l0.121,1.013l-3.748,0.726l-0.805-2.347
				l-4.209,2.637c-3.826,0-4.465-1.362-4.465-4.726v-7.569l-2.027,0.145l-0.145-1.13l3.477-0.753l1.449-0.118v9.657
				c0,1.506,0.639,2.174,2.059,2.174c0.898,0,2.061-0.725,3.162-1.45l0.582-0.378v-8.148l-1.742,0.145l-0.145-1.13l3.186-0.753
				l1.453-0.118V32.311z"/>
			<path fill="#231F20" d="M444.404,24.075c-0.289-0.174-1.158-0.638-2.205-0.638c-1.129,0-2.199,0.608-2.199,1.711
				c0,0.929,0.723,1.508,2.023,2.174l2.234,1.133c1.941,0.985,2.729,2.085,2.729,3.738c0,2.611-2.119,3.596-5.451,4.321
				c-1.77,0-3.656-0.871-4.406-1.305l-0.555-3.276h1.855l0.986,2.406c0.611,0.407,1.451,0.727,2.381,0.727
				c1.533,0,2.318-0.987,2.318-2.206c0-1.133-0.611-1.623-2.115-2.407l-2.295-1.187c-1.246-0.64-2.432-1.741-2.432-3.365
				c0-2.03,1.883-3.161,5.244-3.885c1.57,0,3.25,0.695,4.09,1.303v2.9h-1.539L444.404,24.075z"/>
			<path fill="#231F20" d="M447.916,24.103V23.61l1.012-1.014h1.885V20.71l1.887-1.884h0.752V22.8h4.379v1.303h-4.348v8.498
				c0,0.839,0.316,1.739,1.539,1.739c0.838,0,1.475-0.29,2.289-0.696l0.492,0.986l-3.395,1.885c-3.246,0-3.682-1.159-3.682-3.77
				v-8.642H447.916z"/>
			<path fill="#231F20" d="M462.963,36.022l-3.334,0.086l-0.145-1.014l2.027-0.29V24.219l-2.027,0.173l-0.145-1.012l3.48-0.899
				l1.449-0.118v12.441l2.174,0.29l-0.146,1.014L462.963,36.022z M461.512,16.072l2.088-0.145l0.814,0.145l0.146,1.623l-0.318,1.394
				l-2.062,0.172l-0.781-0.172l-0.176-1.625L461.512,16.072z"/>
			<path fill="#231F20" d="M471.227,36.022l-3.336,0.086l-0.145-1.014l2.029-0.29V24.219l-2.029,0.173l-0.143-1.012l3.48-0.899
				l1.246-0.089l0.145,2.437l4.295-2.812c3.709,0,4.316,1.247,4.316,4.726v8.062l2.203,0.29l-0.146,1.014l-3.332-0.086l-2.785,0.086
				l-0.143-1.014l1.449-0.29V26.51c0-1.507-0.666-2.175-1.914-2.175c-1.018,0-2.029,0.638-3.016,1.306l-0.869,0.579v8.584
				l1.594,0.29l-0.146,1.014L471.227,36.022z"/>
		</g>
	</g>
</g>
</svg>
